<?xml version="1.0" encoding="UTF-8" standalone="no"?>
<!-- Created with Inkscape (http://www.inkscape.org/) -->

<svg
   width="13.598201mm"
   height="14.692408mm"
   viewBox="0 0 13.598201 14.692408"
   version="1.1"
   id="svg1"
   xml:space="preserve"
   xmlns:xlink="http://www.w3.org/1999/xlink"
   xmlns="http://www.w3.org/2000/svg"
   xmlns:svg="http://www.w3.org/2000/svg"><defs
     id="defs1"><linearGradient
       id="linearGradient4375"><stop
         style="stop-color:#364e59;stop-opacity:1;"
         offset="0"
         id="stop4377" /><stop
         style="stop-color:#364e59;stop-opacity:0;"
         offset="1"
         id="stop4379" /></linearGradient><linearGradient
       xlink:href="#linearGradient4375"
       id="linearGradient4381"
       x1="31.957268"
       y1="29.751493"
       x2="-45.041405"
       y2="-18.591616"
       gradientUnits="userSpaceOnUse"
       gradientTransform="matrix(0.93766393,0,0,0.93766393,-54.247922,-17.012603)" /></defs><g
     id="layer1"
     transform="translate(-146.79276,-96.867304)"><g
       id="layer1-3"
       transform="matrix(0.26458333,0,0,0.26458333,145.38855,83.740629)"><path
         style="fill:#ffffff;fill-opacity:1;stroke:#000000;stroke-width:0.867494;stroke-linejoin:round;stroke-miterlimit:4;stroke-dasharray:none;stroke-opacity:0.439216"
         d="m -83.989537,40.214614 c -19.074813,0 -34.546603,15.293216 -34.546603,34.147874 0,18.854655 15.47179,34.147872 34.546603,34.147872 21.79302,-0.51515 14.61359,-7.06549 36.01972,1.4561 -11.46891,-19.533953 -1.6461,-20.026879 -1.47311,-35.603972 0,-18.854658 -15.47179,-34.147874 -34.54661,-34.147874 z"
         id="path3769" /><path
         id="path3799"
         d="m -48.711668,-11.112514 c -2.595383,6.2001533 -3.123584,28.931548 -0.963589,35.468041 9.827724,-0.03951 38.405512,-0.03874 35.944269,-1.35168 -0.499894,4.634102 0.504584,-27.4921917 0.643167,-35.480472 -13.627386,-0.371593 -33.468296,-3.785319 -35.623847,1.364111 z"
         style="fill:url(#linearGradient4381);fill-opacity:1;stroke:none" /><g
         style="font-style:normal;font-weight:normal;font-size:40px;line-height:125%;font-family:Sans;letter-spacing:0px;word-spacing:0px;fill:#000000;fill-opacity:1;stroke:none"
         id="text4383" /><rect
         style="font-style:normal;font-weight:normal;font-size:40px;line-height:125%;font-family:Sans;letter-spacing:0px;word-spacing:0px;fill:#ffffff;fill-opacity:1;fill-rule:nonzero;stroke:none;stroke-width:0.632059;stroke-dasharray:none;stroke-opacity:0"
         id="rect3-5"
         width="5.1894064"
         height="12.414597"
         x="27.954178"
         y="52.366188"
         ry="1.3934751" /><rect
         style="font-style:normal;font-weight:normal;font-size:40px;line-height:125%;font-family:Sans;letter-spacing:0px;word-spacing:0px;fill:#ffffff;fill-opacity:1;fill-rule:nonzero;stroke:none;stroke-width:2.76486;stroke-dasharray:none;stroke-opacity:0"
         id="rect3-2-9"
         width="51.394817"
         height="23.9862"
         x="5.3072653"
         y="71.901413"
         ry="3.6891615" /><path
         style="font-style:normal;font-weight:normal;font-size:40px;line-height:125%;font-family:Sans;letter-spacing:0px;word-spacing:0px;fill:#ffffff;fill-opacity:1;fill-rule:nonzero;stroke:none;stroke-width:1.21338;stroke-dasharray:none;stroke-opacity:0"
         id="path4-2"
         d="m 34.981518,54.154366 a 4.3842263,4.5417409 0 0 1 -4.379959,4.541738 4.3842263,4.5417409 0 0 1 -4.388485,-4.532898 4.3842263,4.5417409 0 0 1 4.371417,-4.550562 4.3842263,4.5417409 0 0 1 4.396994,4.52404" /><rect
         style="font-style:normal;font-weight:normal;font-size:40px;line-height:125%;font-family:Sans;letter-spacing:0px;word-spacing:0px;fill:#ffffff;fill-opacity:1;stroke:none;stroke-width:0.971452;stroke-dasharray:none;stroke-opacity:0"
         id="rect2-2"
         width="42.530022"
         height="41.473671"
         x="9.6179399"
         y="63.669315"
         ry="5.0917149" /><g
         id="g8"><rect
           style="opacity:1;fill:#364e59;fill-opacity:1;fill-rule:nonzero;stroke:none;stroke-width:0.482114;stroke-dasharray:none;stroke-opacity:0"
           id="rect3"
           width="3.3311386"
           height="11.252324"
           x="28.901806"
           y="55.751263"
           ry="1.2630159" /><rect
           style="fill:#364e59;fill-opacity:1;fill-rule:nonzero;stroke:none;stroke-width:2.53858;stroke-dasharray:none;stroke-opacity:0"
           id="rect3-2"
           width="48.976002"
           height="21.219378"
           x="6.4739799"
           y="73.457573"
           ry="3.2636147" /><path
           style="opacity:1;fill:#364e59;fill-opacity:1;fill-rule:nonzero;stroke:none;stroke-width:0.91302;stroke-dasharray:none;stroke-opacity:0"
           id="path4"
           d="m 33.990096,54.157967 a 3.3808088,3.3347375 0 0 1 -3.377518,3.334736 3.3808088,3.3347375 0 0 1 -3.384093,-3.328245 3.3808088,3.3347375 0 0 1 3.370931,-3.341215 3.3808088,3.3347375 0 0 1 3.390654,3.321741" /><rect
           style="fill:#364e59;fill-opacity:1;stroke:none;stroke-width:0.90694;stroke-dasharray:none;stroke-opacity:0"
           id="rect2"
           width="39.973663"
           height="38.459511"
           x="10.869766"
           y="65.12751"
           ry="4.7216668" /></g><g
         transform="matrix(1.1122373,0,0,0.89908874,7.0641718,60.214103)"
         style="font-style:normal;font-weight:normal;font-size:42.1059px;line-height:125%;font-family:Sans;letter-spacing:0px;word-spacing:0px;fill:#ffffff;fill-opacity:1;stroke:none"
         id="text3797"><path
           d="m 21.688854,23.636251 q -1.027975,-1.151333 -2.857771,-2.754974 -2.014832,-1.768118 -2.713855,-2.775534 -0.699024,-1.027975 -0.699024,-2.240986 0,-1.809237 1.68588,-2.837212 1.68588,-1.048535 4.399735,-1.048535 2.713855,0 4.728687,0.925178 2.035391,0.925177 2.035391,2.549379 0,0.781261 -0.493428,1.295249 -0.493428,0.513987 -1.151333,0.513987 -0.945737,0 -2.220426,-1.418606 -1.295249,-1.439165 -2.199868,-2.014832 -0.884059,-0.596225 -2.07651,-0.596225 -1.521404,0 -2.50826,0.678463 -0.966297,0.678464 -0.966297,1.726999 0,0.986857 0.801821,1.850356 0.801821,0.863499 4.132461,3.145605 3.556795,2.446581 5.01652,3.824068 1.480285,1.377487 2.405462,3.3512 0.925178,1.973713 0.925178,4.17358 0,3.865188 -2.734414,6.825757 -2.713855,2.94001 -6.352888,2.94001 -3.310081,0 -5.592187,-2.364344 -2.282105,-2.364343 -2.282105,-6.311769 0,-3.803509 2.50826,-6.352888 2.528819,-2.549379 6.208971,-3.083926 z m 0.904619,0.945737 q -5.900579,0.966297 -5.900579,8.100447 0,3.680152 1.459725,5.715543 1.480285,2.035391 3.433438,2.035391 2.035391,0 3.3512,-1.953153 1.315808,-1.973713 1.315808,-5.324913 0,-4.852044 -3.659592,-8.573315 z"
           style="font-family:'Times New Roman';-inkscape-font-specification:'Times New Roman';fill:#ffffff;fill-opacity:1"
           id="path4161" /></g></g></g></svg>
